ffmpeg version 6.1.1-3ubuntu5 Copyright (c) 2000-2023 the FFmpeg developers
  built with gcc 13 (Ubuntu 13.2.0-23ubuntu3)
  configuration: --prefix=/usr --extra-version=3ubuntu5 --toolchain=hardened --libdir=/usr/lib/x86_64-linux-gnu --incdir=/usr/include/x86_64-linux-gnu --arch=amd64 --enable-gpl --disable-stripping --disable-omx --enable-gnutls --enable-libaom --enable-libass --enable-libbs2b --enable-libcaca --enable-libcdio --enable-libcodec2 --enable-libdav1d --enable-libflite --enable-libfontconfig --enable-libfreetype --enable-libfribidi --enable-libglslang --enable-libgme --enable-libgsm --enable-libharfbuzz --enable-libmp3lame --enable-libmysofa --enable-libopenjpeg --enable-libopenmpt --enable-libopus --enable-librubberband --enable-libshine --enable-libsnappy --enable-libsoxr --enable-libspeex --enable-libtheora --enable-libtwolame --enable-libvidstab --enable-libvorbis --enable-libvpx --enable-libwebp --enable-libx265 --enable-libxml2 --enable-libxvid --enable-libzimg --enable-openal --enable-opencl --enable-opengl --disable-sndio --enable-libvpl --disable-libmfx --enable-libdc1394 --enable-libdrm --enable-libiec61883 --enable-chromaprint --enable-frei0r --enable-ladspa --enable-libbluray --enable-libjack --enable-libpulse --enable-librabbitmq --enable-librist --enable-libsrt --enable-libssh --enable-libsvtav1 --enable-libx264 --enable-libzmq --enable-libzvbi --enable-lv2 --enable-sdl2 --enable-libplacebo --enable-librav1e --enable-pocketsphinx --enable-librsvg --enable-libjxl --enable-shared
  libavutil      58. 29.100 / 58. 29.100
  libavcodec     60. 31.102 / 60. 31.102
  libavformat    60. 16.100 / 60. 16.100
  libavdevice    60.  3.100 / 60.  3.100
  libavfilter     9. 12.100 /  9. 12.100
  libswscale      7.  5.100 /  7.  5.100
  libswresample   4. 12.100 /  4. 12.100
  libpostproc    57.  3.100 / 57.  3.100
Input #0, matroska,webm, from 'RickAstley.mkv':
  Metadata:
    MAJOR_BRAND     : dash
    MINOR_VERSION   : 0
    COMPATIBLE_BRANDS: iso6avc1mp41
    ENCODER         : Lavf58.29.100
  Duration: 00:00:17.37, start: -0.007000, bitrate: 2315 kb/s
  Stream #0:0: Video: h264 (High), yuv420p(tv, bt709, progressive), 1920x1080 [SAR 1:1 DAR 16:9], 25 fps, 25 tbr, 1k tbn (default)
    Metadata:
      HANDLER_NAME    : ISO Media file produced by Google Inc.
      DURATION        : 00:00:17.373000000
  Stream #0:1(eng): Audio: opus, 48000 Hz, stereo, fltp (default)
    Metadata:
      DURATION        : 00:00:17.320000000
Stream mapping:
  Stream #0:0 -> #0:0 (h264 (native) -> h264 (libx264))
  Stream #0:1 -> #0:1 (opus (native) -> aac (native))
Press [q] to stop, [?] for help
[libx264 @ 0x586c7b5f2880] using SAR=1/1
[libx264 @ 0x586c7b5f2880] using cpu capabilities: MMX2 SSE2Fast SSSE3 SSE4.2 AVX FMA3 BMI2 AVX2
[libx264 @ 0x586c7b5f2880] profile High, level 4.0, 4:2:0, 8-bit
[libx264 @ 0x586c7b5f2880] 264 - core 164 r3108 31e19f9 - H.264/MPEG-4 AVC codec - Copyleft 2003-2023 - http://www.videolan.org/x264.html - options: cabac=1 ref=1 deblock=1:0:0 analyse=0x3:0x113 me=hex subme=2 psy=1 psy_rd=1.00:0.00 mixed_ref=0 me_range=16 chroma_me=1 trellis=0 8x8dct=1 cqm=0 deadzone=21,11 fast_pskip=1 chroma_qp_offset=0 threads=18 lookahead_threads=6 sliced_threads=0 nr=0 decimate=1 interlaced=0 bluray_compat=0 constrained_intra=0 bframes=3 b_pyramid=2 b_adapt=1 b_bias=0 direct=1 weightb=1 open_gop=0 weightp=1 keyint=250 keyint_min=25 scenecut=40 intra_refresh=0 rc_lookahead=10 rc=abr mbtree=1 bitrate=2000 ratetol=1.0 qcomp=0.60 qpmin=0 qpmax=69 qpstep=4 ip_ratio=1.40 aq=1:1.00
Output #0, flv, to 'rtmp://192.168.2.20:1935/live/stream':
  Metadata:
    MAJOR_BRAND     : dash
    MINOR_VERSION   : 0
    COMPATIBLE_BRANDS: iso6avc1mp41
    encoder         : Lavf60.16.100
  Stream #0:0: Video: h264 ([7][0][0][0] / 0x0007), yuv420p(tv, bt709, progressive), 1920x1080 [SAR 1:1 DAR 16:9], q=2-31, 2000 kb/s, 25 fps, 1k tbn (default)
    Metadata:
      HANDLER_NAME    : ISO Media file produced by Google Inc.
      DURATION        : 00:00:17.373000000
      encoder         : Lavc60.31.102 libx264
    Side data:
      cpb: bitrate max/min/avg: 0/0/2000000 buffer size: 0 vbv_delay: N/A
  Stream #0:1(eng): Audio: aac (LC) ([10][0][0][0] / 0x000A), 44100 Hz, stereo, fltp, 128 kb/s (default)
    Metadata:
      DURATION        : 00:00:17.320000000
      encoder         : Lavc60.31.102 aac
frame=    0 fps=0.0 q=0.0 size=       0kB time=00:00:01.42 bitrate=   2.7kbits/s speed=1.45x    frame=    0 fps=0.0 q=0.0 size=       0kB time=00:00:01.93 bitrate=   2.0kbits/s speed= 1.3x    frame=    0 fps=0.0 q=0.0 size=       0kB time=00:00:02.42 bitrate=   1.6kbits/s speed=1.22x    frame=    6 fps=2.4 q=36.0 size=      90kB time=00:00:02.93 bitrate= 252.5kbits/s speed=1.17x    frame=   19 fps=6.3 q=32.0 size=     234kB time=00:00:03.46 bitrate= 552.5kbits/s speed=1.15x    frame=   32 fps=9.1 q=31.0 size=     310kB time=00:00:03.95 bitrate= 641.2kbits/s speed=1.13x    frame=   44 fps= 11 q=30.0 size=     415kB time=00:00:04.46 bitrate= 761.4kbits/s speed=1.11x    frame=   57 fps= 13 q=30.0 size=     532kB time=00:00:04.97 bitrate= 876.6kbits/s speed= 1.1x    frame=   70 fps= 14 q=30.0 size=     650kB time=00:00:05.51 bitrate= 966.4kbits/s speed=1.09x    frame=   83 fps= 15 q=29.0 size=     783kB time=00:00:06.02 bitrate=1064.8kbits/s speed=1.08x    frame=   96 fps= 16 q=30.0 size=     954kB time=00:00:06.53 bitrate=1196.0kbits/s speed=1.07x    frame=  109 fps= 17 q=31.0 size=    1119kB time=00:00:07.06 bitrate=1297.1kbits/s speed=1.07x    frame=  122 fps= 17 q=31.0 size=    1322kB time=00:00:07.57 bitrate=1429.9kbits/s speed=1.06x    frame=  134 fps= 18 q=31.0 size=    1475kB time=00:00:08.06 bitrate=1498.0kbits/s speed=1.06x    frame=  147 fps= 18 q=32.0 size=    1623kB time=00:00:08.57 bitrate=1550.3kbits/s speed=1.06x    frame=  160 fps= 19 q=32.0 size=    1781kB time=00:00:09.08 bitrate=1605.4kbits/s speed=1.05x    frame=  172 fps= 19 q=32.0 size=    1934kB time=00:00:09.57 bitrate=1654.7kbits/s speed=1.05x    frame=  185 fps= 19 q=32.0 size=    2044kB time=00:00:10.10 bitrate=1656.8kbits/s speed=1.05x    frame=  198 fps= 19 q=32.0 size=    2218kB time=00:00:10.61 bitrate=1711.4kbits/s speed=1.04x    frame=  211 fps= 20 q=32.0 size=    2341kB time=00:00:11.12 bitrate=1723.1kbits/s speed=1.04x    frame=  223 fps= 20 q=32.0 size=    2466kB time=00:00:11.61 bitrate=1739.3kbits/s speed=1.04x    frame=  236 fps= 20 q=32.0 size=    2603kB time=00:00:12.12 bitrate=1758.5kbits/s speed=1.04x    frame=  249 fps= 20 q=32.0 size=    2751kB time=00:00:12.66 bitrate=1779.9kbits/s speed=1.04x    frame=  261 fps= 21 q=32.0 size=    2874kB time=00:00:13.14 bitrate=1790.6kbits/s speed=1.04x    frame=  274 fps= 21 q=32.0 size=    3003kB time=00:00:13.66 bitrate=1800.9kbits/s speed=1.03x    frame=  287 fps= 21 q=32.0 size=    3124kB time=00:00:14.17 bitrate=1806.0kbits/s speed=1.03x    frame=  301 fps= 21 q=32.0 size=    3266kB time=00:00:14.70 bitrate=1819.2kbits/s speed=1.03x    frame=  313 fps= 21 q=32.0 size=    3384kB time=00:00:15.21 bitrate=1822.1kbits/s speed=1.03x    frame=  326 fps= 21 q=32.0 size=    3503kB time=00:00:15.75 bitrate=1822.1kbits/s speed=1.03x    frame=  339 fps= 21 q=32.0 size=    3627kB time=00:00:16.23 bitrate=1829.9kbits/s speed=1.03x    frame=  352 fps= 22 q=31.0 size=    3726kB time=00:00:16.74 bitrate=1822.5kbits/s speed=1.03x    frame=  364 fps= 22 q=31.0 size=    3817kB time=00:00:17.23 bitrate=1814.1kbits/s speed=1.03x    [flv @ 0x586c7b6c7580] Failed to update header with correct duration.
[flv @ 0x586c7b6c7580] Failed to update header with correct filesize.
[out#0/flv @ 0x586c7b580f00] video:3939kB audio:272kB subtitle:0kB other streams:0kB global headers:0kB muxing overhead: 0.495977%
frame=  409 fps= 24 q=-1.0 Lsize=    4232kB time=00:00:17.30 bitrate=2003.1kbits/s speed=1.02x    
[libx264 @ 0x586c7b5f2880] frame I:9     Avg QP:20.41  size: 31984
[libx264 @ 0x586c7b5f2880] frame P:146   Avg QP:25.29  size: 16051
[libx264 @ 0x586c7b5f2880] frame B:254   Avg QP:26.64  size:  5516
[libx264 @ 0x586c7b5f2880] consecutive B-frames:  4.6% 13.2% 73.3%  8.8%
[libx264 @ 0x586c7b5f2880] mb I  I16..4: 42.6% 54.4%  3.0%
[libx264 @ 0x586c7b5f2880] mb P  I16..4: 11.9% 28.4%  0.2%  P16..4: 11.4%  4.1%  1.0%  0.0%  0.0%    skip:43.1%
[libx264 @ 0x586c7b5f2880] mb B  I16..4:  2.0%  4.2%  0.0%  B16..8: 12.0%  2.4%  0.1%  direct: 2.4%  skip:76.9%  L0:44.7% L1:51.7% BI: 3.6%
[libx264 @ 0x586c7b5f2880] final ratefactor: 25.81
[libx264 @ 0x586c7b5f2880] 8x8 transform intra:68.1% inter:69.6%
[libx264 @ 0x586c7b5f2880] coded y,uvDC,uvAC intra: 31.5% 41.0% 0.8% inter: 1.1% 6.2% 0.0%
[libx264 @ 0x586c7b5f2880] i16 v,h,dc,p: 49% 24% 16% 11%
[libx264 @ 0x586c7b5f2880] i8 v,h,dc,ddl,ddr,vr,hd,vl,hu: 32% 26% 19%  3%  4%  5%  4%  4%  3%
[libx264 @ 0x586c7b5f2880] i4 v,h,dc,ddl,ddr,vr,hd,vl,hu: 31% 26%  9%  4%  6%  6%  7%  6%  5%
[libx264 @ 0x586c7b5f2880] i8c dc,h,v,p: 49% 20% 26%  5%
[libx264 @ 0x586c7b5f2880] Weighted P-Frames: Y:4.1% UV:0.7%
[libx264 @ 0x586c7b5f2880] kb/s:1971.86
[aac @ 0x586c7b64a2c0] Qavg: 445.948
